<svg width="430" height="874" viewBox="0 0 430 874" fill="none" xmlns="http://www.w3.org/2000/svg">
<g opacity="0.3">
<path d="M562.218 311.36C613.314 284.223 627.364 179.064 522.676 208.893C505.511 213.784 475.409 217.734 438.357 219.169C404.416 220.483 379.396 168.287 333.941 156.869C262.655 138.96 227.135 242.729 189.44 231.498C140.069 216.789 112.107 156.735 82.2422 125.272C54.1279 95.6527 12.8568 79.6336 -27.9462 76.5242C-99.5299 71.0693 -169.673 105.349 -164.805 175.636C-162.368 210.822 -141.133 255.031 -91.8722 307.796C-69.8474 331.387 -51.5144 352.322 -36.4676 371.08C2.26047 419.36 -76.0031 414.649 -71.2404 477.09C-68.5267 512.668 2.06535 541.57 -29.777 573.843C-52.4187 596.79 -80.0505 623.324 -107.346 659.735C-155.28 723.678 -154.642 796.244 -75.0377 796.817C-37.4598 797.088 17.7147 781.316 93.6831 741.022C142.298 715.236 146.433 764.134 212.471 761.779C278.51 759.423 303.06 709.885 334.155 739.79L334.778 740.389C358.477 763.183 383.753 787.495 427.78 797.088C465.704 805.352 501.585 799.748 527.87 784.89C556.001 768.989 573.141 742.488 570.031 711.044C566.911 679.493 543.405 642.966 490.16 607.174C455.055 583.576 526.683 555.969 513.132 507.679C499.581 459.388 427.447 461.238 444.535 429.237C474.216 373.65 502.374 343.143 562.218 311.36Z" stroke="white"/>
<path d="M281.913 446.397C289.76 442.258 285.819 427.908 276.81 428.256C266.553 428.651 253.945 435.397 243.693 436.044C223.899 437.294 217.459 431.032 205.415 418.47C201.104 413.966 194.772 411.534 188.509 411.068C177.522 410.249 166.75 415.478 167.486 426.175C167.854 431.53 171.107 438.255 178.66 446.279C182.037 449.866 184.847 453.049 187.154 455.902C197.868 468.238 192.281 481.616 188.149 486.762C184.669 490.259 180.424 494.302 176.228 499.848C168.86 509.588 171.573 522.648 181.166 520.707C194.718 517.966 242.946 488.381 254.829 511.73C260.349 522.576 269.675 521.061 273.712 518.796C278.033 516.371 280.668 512.335 280.196 507.549C279.722 502.747 270.906 495.772 267.952 491.752C257.047 476.915 250.681 463.265 281.913 446.397Z" stroke="white"/>
<path d="M501.4 228.782C596.75 202.012 583.88 298.114 537.037 322.993C479.774 353.442 454.731 382.441 428.712 434.369C413.299 463.668 479.193 462.236 491.761 506.433C504.328 550.631 439.369 576.018 471.33 597.707C519.817 630.709 540.966 664.311 543.415 693.238C546.063 721.952 530.167 746.15 504.255 760.554C480.022 774.01 447.042 778.896 412.288 770.883C370.806 759.953 343.409 740.206 320.46 719.558C291.735 692.435 269.122 737.256 208.952 739.013C148.782 740.771 145.125 695.76 101.226 718.78C32.4868 754.938 -17.3291 768.921 -51.2045 768.356C-123.444 767.6 -123.806 701.154 -80.1435 642.471C-55.2588 608.839 -30.2352 584.111 -10.1196 562.671C18.6426 533.048 -45.8375 506.46 -48.6118 473.762C-53.2866 416.583 17.6751 420.534 -17.7238 376.301C-31.5769 358.928 -48.3387 339.605 -68.3942 317.896C-113.28 268.913 -131.629 228.214 -132.855 196.275C-137.002 132.343 -72.9003 101.22 -7.50978 106.296C29.8758 109.237 67.6654 123.971 93.4393 151.126C121.699 180.897 147.722 236.109 194.427 249.381C229.185 259.57 262.016 164.987 327.39 181.117C369.261 191.342 392.541 238.672 423.884 237.459C458.001 236.138 485.681 232.863 501.4 228.782Z" stroke="white"/>
<path d="M479.234 249.556C564.929 225.905 553.302 312.804 510.872 335.377C456.388 364.434 434.547 391.878 412.285 440.064C398.603 466.615 458.043 465.617 469.595 505.658C481.146 545.699 423.073 568.814 451.791 588.57C495.369 618.743 514.1 649.375 515.878 675.636C518.061 701.576 503.468 723.432 479.862 736.312C457.764 748.34 427.793 752.493 396.322 744.736C357.905 732.559 328.536 717.744 306.59 699.439C280.325 675.133 259.732 715.164 205.627 716.307C151.522 717.45 148.344 676.395 109.308 696.603C48.0288 728.556 3.73553 740.718 -26.3281 739.854C-90.9681 738.9 -91.0685 678.672 -51.8326 625.346C-29.4468 594.548 -7.11822 571.67 10.4022 551.772C35.9846 524.849 -22.1793 500.601 -25.0118 470.83C-29.5953 418.998 33.835 422.199 1.87096 382.069C-10.7468 366.105 -25.8871 348.418 -43.9129 328.62C-84.2894 283.482 -99.7025 246.349 -99.7223 217.704C-103.149 160.224 -45.3054 132.317 13.68 137.02C47.5268 139.798 81.7148 153.232 105.07 177.888C131.637 205.93 155.647 256.223 199.533 268.049C231.243 277.19 261.258 191.94 320.508 206.282C358.66 215.308 380.134 257.706 408.776 256.603C439.846 255.406 465.012 252.817 479.234 249.556Z" stroke="white"/>
<path d="M457.957 269.441C534.313 248.85 523.865 326.685 485.69 346.999C433.786 374.724 415.061 400.661 396.461 445.187C384.454 469.035 437.654 468.455 448.221 504.401C458.789 540.346 407.385 561.239 432.959 579.086C471.778 606.467 488.152 634.172 489.259 657.808C490.979 681.015 477.631 700.566 456.244 711.949C436.198 722.572 409.128 726.007 380.827 718.5C345.34 705.067 313.909 695.167 292.894 679.182C269.001 657.661 250.344 692.97 202.108 693.514C153.872 694.058 151.171 656.894 116.851 674.333C62.8007 702.147 23.8658 712.518 -2.49543 711.36C-59.7703 710.224 -59.5944 656.119 -24.6301 608.056C-4.65471 580.038 15.0656 558.967 30.0602 540.576C52.5625 516.303 0.511011 494.372 -2.38178 467.483C-6.87683 420.916 49.2511 423.356 20.6167 387.274C9.19287 372.696 -4.37595 356.622 -20.4325 338.708C-56.434 297.354 -68.9609 263.733 -67.7696 238.338C-70.475 187.218 -18.6725 162.47 34.1193 166.793C64.5486 169.403 95.2548 181.551 116.269 203.741C141.231 230.091 163.301 275.54 204.52 285.927C233.293 294.026 260.62 217.967 313.956 230.529C348.525 238.36 368.257 275.888 394.301 274.886C422.436 273.803 445.18 271.89 457.957 269.441Z" stroke="white"/>
<path d="M436.773 290.086C503.79 272.577 494.506 341.214 460.582 359.241C411.251 385.597 395.637 409.987 380.694 450.779C370.357 471.885 417.315 471.712 426.89 503.497C436.465 535.281 391.731 553.927 414.155 569.828C448.207 594.361 462.217 619.087 462.646 640.057C463.899 660.489 451.791 677.705 432.621 687.574C414.626 696.78 390.457 699.496 365.329 692.259C332.776 677.598 299.276 672.64 279.194 659.007C257.678 640.315 240.95 670.843 198.586 670.797C156.222 670.751 154.006 637.544 124.402 652.19C77.5792 675.826 44.0041 684.397 21.3479 682.952C-28.5573 681.647 -28.0932 633.76 2.60737 591.037C20.1772 565.845 37.2921 546.613 49.7627 529.758C69.1881 508.173 23.2565 488.607 20.3086 464.647C15.9113 423.429 64.7323 425.091 39.4367 393.128C29.2103 379.963 17.2169 365.533 3.13455 349.537C-28.4809 312.047 -38.1114 281.999 -35.7015 259.897C-37.6737 215.229 8.08967 193.671 54.6842 197.597C81.6939 200.027 108.914 210.861 127.582 230.541C150.934 255.15 171.054 295.669 209.605 304.59C235.439 311.627 260.093 244.888 307.511 255.636C338.493 262.25 356.477 294.839 379.922 293.934C405.121 292.961 425.442 291.722 436.773 290.086Z" stroke="white"/>
<path d="M414.489 310.859C472.015 296.448 463.933 355.881 434.34 371.611C387.698 396.581 375.237 419.414 363.992 456.463C355.354 474.823 395.966 475.069 404.537 502.694C413.107 530.318 375.145 546.703 394.374 560.662C423.59 582.354 435.211 604.104 434.969 622.405C435.757 640.063 424.92 654.938 408.013 663.289C392.11 671.071 370.897 673.063 348.996 666.09C319.446 650.201 283.951 650.169 264.844 638.884C245.747 623.014 230.994 648.758 194.595 648.112C158.195 647.466 156.461 618.216 131.642 630.062C92.1556 649.509 64.0161 656.27 45.1144 654.534C2.68807 653.048 3.42663 611.381 29.7846 574.01C44.9035 551.649 59.3705 534.264 69.2857 518.95C85.5859 500.06 45.8701 482.85 42.8675 461.82C38.567 425.952 79.9744 426.85 58.0648 399C49.055 387.248 38.6597 374.46 26.5783 360.38C-0.591323 326.749 -7.31275 300.274 -3.69612 281.467C-4.94293 243.251 34.6746 224.897 74.9703 228.436C98.5014 230.694 122.179 240.22 138.465 257.395C160.16 280.263 178.296 315.855 214.096 323.32C236.935 329.302 258.844 271.891 300.242 280.838C327.571 286.245 343.775 313.897 364.569 313.095C386.776 312.239 404.63 311.679 414.489 310.859Z" stroke="white"/>
<path d="M393.21 330.726C441.39 319.381 434.487 369.734 409.15 383.202C365.08 406.839 355.739 428.165 348.162 461.549C341.2 477.202 375.568 477.866 383.154 501.387C390.739 524.908 359.453 539.069 375.535 551.115C399.988 570.01 409.248 588.827 408.333 604.498C408.656 619.418 399.064 631.985 384.376 638.836C370.526 645.212 352.214 646.484 333.486 639.762C306.865 622.612 269.289 627.509 251.109 618.548C234.385 605.47 221.568 626.483 191.042 625.237C160.517 623.991 159.261 598.639 139.163 607.71C106.913 623.011 84.1378 627.978 68.943 625.947C33.8889 624.279 34.9058 588.746 56.9894 556.647C69.6965 537.07 81.553 521.494 88.9385 507.689C102.156 491.454 68.5569 476.565 65.4933 458.422C61.2807 427.829 95.3787 427.963 76.8016 404.169C68.9863 393.805 60.1637 382.633 50.0536 370.44C27.2632 340.6 23.4349 317.643 28.2679 302.091C27.7453 270.249 61.3175 255.058 95.4152 258.216C115.527 260.305 135.72 268.542 149.663 283.246C169.756 304.42 185.952 335.158 219.09 341.182C238.99 346.119 258.212 297.916 293.694 305.078C317.438 309.287 331.9 332.06 350.096 331.359C369.367 330.617 384.797 330.733 393.21 330.726Z" stroke="white"/>
<path d="M372.024 351.343C410.852 343.078 405.113 384.223 384.032 395.4C342.518 417.658 336.294 437.422 332.382 467.055C327.093 479.961 355.212 481.031 361.805 500.385C368.398 519.739 343.79 531.647 356.718 541.744C376.398 557.785 383.288 573.618 381.693 586.619C381.547 598.763 373.195 608.991 360.725 614.329C348.927 619.287 333.519 619.842 317.968 613.395C294.282 595.038 254.603 604.863 237.35 598.257C223.003 588.009 212.117 604.241 187.471 602.408C162.825 600.575 162.057 579.187 146.684 585.467C121.675 596.59 104.269 599.758 92.7871 597.442C65.1139 595.606 66.4211 566.3 84.2361 539.55C94.5355 522.805 103.784 509.076 108.64 496.814C118.775 483.272 91.3033 470.753 88.1831 455.546C84.0667 430.309 110.847 429.669 95.6128 410C88.9961 401.054 81.751 391.529 73.6179 381.258C55.2206 355.293 54.2988 335.915 60.3574 323.657C60.57 298.27 88.0964 286.271 115.99 289.03C132.679 290.938 149.383 297.858 160.978 310.049C179.462 329.466 193.708 355.265 224.185 359.82C241.145 363.694 257.694 324.817 287.253 330.165C307.409 333.158 320.124 350.988 335.72 350.384C352.054 349.751 365.059 350.54 372.024 351.343Z" stroke="white"/>
<path d="M350.779 371.461C380.241 366.262 375.695 398.413 358.878 407.345C319.919 428.325 316.832 446.636 316.614 472.68C313.011 482.905 334.876 484.407 340.491 499.701C346.105 514.996 328.192 524.7 337.97 532.91C352.882 546.198 357.41 559.137 355.139 569.538C354.53 578.968 347.425 586.908 337.177 590.751C327.434 594.308 314.93 594.137 302.554 587.917C281.787 568.226 239.979 583.025 223.641 578.729C211.664 571.249 202.72 582.776 183.958 580.327C165.196 577.877 164.903 560.337 154.265 563.844C136.514 570.828 124.489 572.197 116.724 569.575C96.4388 567.541 98.0182 544.305 111.543 522.772C119.421 508.774 126.048 496.823 128.361 486.039C135.401 475.125 114.052 464.89 110.863 452.533C106.823 432.515 126.277 431.114 114.374 415.453L114.059 415.012C108.73 407.564 103.158 399.775 97.1161 391.528C83.0983 369.282 85.0797 353.377 92.3635 344.352C93.2969 325.288 114.765 316.438 136.452 318.831C149.718 320.581 162.936 326.233 172.189 335.983C189.084 353.767 201.399 374.776 229.229 377.905C243.25 380.746 257.101 351.003 280.738 354.584C297.308 356.389 308.289 369.376 321.286 368.876C334.682 368.36 345.263 369.835 350.779 371.461Z" stroke="white"/>
<path d="M328.457 392.172C348.424 390.07 345.078 412.979 332.598 419.605C296.363 439.164 296.42 455.886 299.886 478.145C297.979 485.611 313.493 487.526 318.097 498.641C322.702 509.756 311.559 517.188 318.14 523.445C328.213 533.871 330.353 543.816 327.414 551.535C326.341 558.18 320.511 563.772 312.53 566.094C304.884 568.226 295.341 567.334 286.197 561.392C268.45 540.519 224.703 560.204 209.356 558.259C199.805 553.609 192.839 560.343 180.045 557.302C167.252 554.262 167.44 540.704 161.584 541.413C151.166 544.208 144.573 543.773 140.559 540.866C127.753 538.658 129.606 521.671 138.789 505.516C144.217 494.369 148.198 484.282 147.962 475.057C151.88 466.851 136.753 458.987 133.515 449.578C129.579 434.935 141.62 432.773 133.108 421.246C128.904 415.088 124.832 408.809 120.673 402.327C111.106 383.976 115.986 371.665 124.465 365.943C126.122 353.351 141.44 347.711 156.823 349.711C166.605 351.284 176.275 355.618 183.142 362.85C198.364 378.86 208.685 394.912 233.739 396.58C244.758 398.362 255.859 377.979 273.468 379.754C286.376 380.349 295.568 388.387 305.908 387.99C316.306 387.59 324.414 389.738 328.457 392.172Z" stroke="white"/>
<path d="M307.268 413.011C317.808 413.988 315.652 427.729 307.469 432.069C273.876 450.24 277.066 465.401 284.211 483.921C283.991 488.651 293.204 490.979 296.811 497.948C300.418 504.917 296.002 510.098 299.408 514.418C304.678 522.01 304.441 528.987 300.83 534.049C299.292 537.93 294.722 541.192 288.984 542.003C283.414 542.721 276.803 541.11 270.863 535.438C256.093 513.363 210.321 537.938 195.931 538.332C188.78 536.494 183.772 538.467 176.902 534.834C170.033 531.201 170.704 521.59 169.602 519.515C166.474 518.144 165.284 515.911 165.002 512.717C159.627 510.332 161.758 499.543 166.63 488.719C169.626 480.396 170.978 472.152 168.202 464.467C169.015 458.946 160.061 453.432 156.767 446.945C152.927 437.633 157.603 434.711 152.455 427.284C149.459 422.537 146.974 417.895 144.804 413.324C139.655 398.826 147.435 390.076 157.122 387.632C159.505 381.465 168.722 379.011 177.85 380.623C184.18 382.022 190.333 385.051 194.833 389.785C208.418 404.049 216.771 415.188 239.108 415.402C247.156 416.131 255.539 405.037 267.173 405.017C276.458 404.408 283.885 407.53 291.596 407.235C299.026 406.949 304.685 409.769 307.268 413.011Z" stroke="white"/>
</g>
</svg>
