<svg width="338" height="25" viewBox="0 0 338 25" fill="none" xmlns="http://www.w3.org/2000/svg">
<g opacity="0.8">
<path opacity="0.1" d="M327.596 4.42284L327.596 19.744L309.575 12.0834L327.596 4.42284Z" fill="white"/>
<path opacity="0.2" d="M291.773 4.42284L291.773 19.744L273.752 12.0834L291.773 4.42284Z" fill="white"/>
<path opacity="0.4" d="M255.95 4.42284L255.95 19.744L237.929 12.0834L255.95 4.42284Z" fill="white"/>
<path opacity="0.5" d="M220.128 4.42284L220.128 19.744L202.107 12.0834L220.128 4.42284Z" fill="white"/>
<path opacity="0.6" d="M184.305 4.42284L184.305 19.744L166.284 12.0834L184.305 4.42284Z" fill="white"/>
<path opacity="0.7" d="M148.482 4.42284L148.482 19.744L130.461 12.0834L148.482 4.42284Z" fill="white"/>
<path opacity="0.8" d="M112.66 4.42284L112.66 19.744L94.6388 12.0834L112.66 4.42284Z" fill="white"/>
<path opacity="0.9" d="M76.837 4.42284L76.837 19.744L58.8161 12.0834L76.837 4.42284Z" fill="white"/>
<path d="M41.0142 4.42284L41.0142 19.744L22.9933 12.0834L41.0142 4.42284Z" fill="white"/>
</g>
</svg>
