<svg width="338" height="25" viewBox="0 0 338 25" fill="none" xmlns="http://www.w3.org/2000/svg">
<g opacity="0.8">
<path opacity="0.1" d="M10.4045 4.42284L10.4045 19.744L28.4254 12.0834L10.4045 4.42284Z" fill="white"/>
<path opacity="0.2" d="M46.227 4.42284L46.227 19.744L64.2479 12.0834L46.227 4.42284Z" fill="white"/>
<path opacity="0.4" d="M82.0497 4.42284L82.0497 19.744L100.071 12.0834L82.0497 4.42284Z" fill="white"/>
<path opacity="0.5" d="M117.872 4.42284L117.872 19.744L135.893 12.0834L117.872 4.42284Z" fill="white"/>
<path opacity="0.6" d="M153.695 4.42284L153.695 19.744L171.716 12.0834L153.695 4.42284Z" fill="white"/>
<path opacity="0.7" d="M189.518 4.42284L189.518 19.744L207.539 12.0834L189.518 4.42284Z" fill="white"/>
<path opacity="0.8" d="M225.34 4.42284L225.34 19.744L243.361 12.0834L225.34 4.42284Z" fill="white"/>
<path opacity="0.9" d="M261.163 4.42284L261.163 19.744L279.184 12.0834L261.163 4.42284Z" fill="white"/>
<path d="M296.986 4.42284L296.986 19.744L315.007 12.0834L296.986 4.42284Z" fill="white"/>
</g>
</svg>
