<svg width="230" height="281" viewBox="0 0 230 281" fill="none" xmlns="http://www.w3.org/2000/svg">
<g opacity="0.3">
<path d="M51.9938 242.207C-11.2111 208.366 32.4092 152.347 82.6792 129.809C110.964 115.664 100.262 78.5013 135.319 60.9955C170.377 43.4898 170.303 104.417 224.78 78.426C279.258 52.435 330.057 138.807 296.878 175.266C263.699 211.726 284.774 213.093 277.643 274.35C270.511 335.608 175.959 360.228 150.803 307.772C125.646 255.315 120.414 278.841 51.9938 242.207Z" stroke="white" stroke-width="1.2494"/>
<path d="M164.087 202.472C157.802 199.526 157.218 184.739 166.216 181.862C174.454 179.226 177.756 171.699 182.617 169.277C195.413 162.9 193.871 168.258 202.204 167.895C212.344 167.453 228.1 177.636 216.509 189.811C206.976 199.824 214.692 201.458 209.708 211.008C204.724 220.557 192.961 225.569 183.303 216.374C179.677 212.922 174.554 207.377 164.087 202.472Z" stroke="white" stroke-width="1.2494"/>
<path d="M61.9401 238.364C3.90977 207.332 43.5115 155.061 90.0294 134.311C116.492 121.212 107.063 86.7432 139.375 70.6087C172.409 54.1146 172.202 109.99 222.484 86.329C272.931 62.6606 320.544 142.106 289.328 176.358C258.299 210.413 278.159 211.804 271.223 268.361C264.286 324.918 177.26 347.756 153.513 299.232C130.314 251.231 125.092 272.113 61.9401 238.364Z" stroke="white" stroke-width="1.2494"/>
<path d="M71.8864 234.522C19.0307 206.298 54.6138 157.775 97.3796 138.812C122.02 126.76 113.864 94.9852 143.431 80.2219C174.441 64.7396 174.1 115.563 220.188 94.232C266.604 72.8863 311.031 145.406 281.777 177.45C252.898 209.101 271.544 210.516 264.803 262.372C258.062 314.229 178.562 335.283 156.224 290.693C134.982 247.146 129.77 265.386 71.8864 234.522Z" stroke="white" stroke-width="1.2494"/>
<path d="M81.8331 230.679C34.1519 205.264 65.7165 160.49 104.73 143.314C127.548 132.308 120.665 103.228 147.487 89.8354C176.473 75.3648 175.999 121.137 217.892 102.135C260.277 83.1122 301.519 148.705 274.228 178.542C247.498 207.789 264.929 209.228 258.383 256.384C251.838 303.539 179.864 322.811 158.935 282.154C139.65 243.062 134.448 258.659 81.8331 230.679Z" stroke="white" stroke-width="1.2494"/>
<path d="M91.7797 226.836C49.273 204.23 76.8191 163.205 112.081 147.816C133.076 137.856 127.466 111.47 151.543 99.4491C178.506 85.9901 177.898 126.711 215.596 110.039C253.95 93.3383 292.006 152.005 266.678 179.634C242.097 206.477 258.314 207.94 251.964 250.395C245.613 292.85 181.166 310.34 161.646 273.615C144.318 238.978 139.126 251.932 91.7797 226.836Z" stroke="white" stroke-width="1.2494"/>
<path d="M101.894 223.153C64.562 203.356 88.0895 166.078 119.599 152.477C138.772 143.564 134.435 119.871 155.767 109.222C180.706 96.7745 179.965 132.443 213.467 118.101C247.791 103.723 282.662 155.464 259.295 180.885C236.865 205.324 251.867 206.812 245.712 244.566C239.557 282.32 182.636 298.027 164.524 265.235C149.154 235.053 143.972 245.364 101.894 223.153Z" stroke="white" stroke-width="1.2494"/>
<path d="M112.206 219.658C80.0484 202.669 99.5573 169.14 127.315 157.326C144.665 149.459 141.602 128.461 160.188 119.182C183.103 107.747 182.229 138.364 211.536 126.352C241.83 114.297 273.514 159.111 252.111 182.324C231.83 204.358 245.618 205.871 239.658 238.924C233.698 271.978 184.303 285.902 167.601 257.043C154.188 231.316 149.016 238.985 112.206 219.658Z" stroke="white" stroke-width="1.2494"/>
<path d="M122.529 216.173C95.5457 201.993 111.036 172.212 135.041 162.185C150.57 155.364 148.779 137.061 164.621 129.153C185.512 118.73 184.504 144.295 209.616 134.613C235.879 124.88 264.378 162.768 244.937 183.774C226.805 203.404 239.379 204.941 233.614 233.293C227.85 261.646 185.981 273.787 170.688 248.861C159.232 227.589 154.07 232.615 122.529 216.173Z" stroke="white" stroke-width="1.2494"/>
<path d="M132.868 212.702C111.059 201.331 122.531 175.299 142.785 167.059C156.49 161.285 155.973 145.675 169.069 139.139C187.937 129.727 186.795 150.241 207.713 142.888C229.945 135.478 255.258 166.44 237.779 185.238C221.798 202.464 233.157 204.025 227.587 227.677C222.018 251.329 187.675 261.688 173.791 240.695C164.293 223.878 159.141 226.261 132.868 212.702Z" stroke="white" stroke-width="1.2494"/>
<path d="M143.231 209.254C126.597 200.691 134.05 178.407 150.551 171.955C162.435 167.227 163.191 154.312 173.542 149.147C190.386 140.746 189.11 156.208 205.833 151.186C224.035 146.098 246.162 170.134 230.646 186.724C216.814 201.546 226.958 203.131 221.584 222.082C216.21 241.033 189.394 249.61 176.919 232.55C169.377 220.187 164.235 219.928 143.231 209.254Z" stroke="white" stroke-width="1.2494"/>
<path d="M153.63 205.838C142.171 200.084 145.605 181.549 158.355 176.884C168.416 173.202 170.445 162.981 178.05 159.187C192.871 151.798 191.462 162.209 203.99 159.516C218.161 156.751 237.102 173.86 223.549 188.243C211.866 200.66 220.796 202.27 215.617 216.52C210.438 230.771 191.148 237.564 180.082 224.437C174.498 216.53 169.366 213.627 153.63 205.838Z" stroke="white" stroke-width="1.2494"/>
</g>
</svg>
