<svg width="376" height="352" viewBox="0 0 376 352" fill="none" xmlns="http://www.w3.org/2000/svg">
<g opacity="0.4">
<path opacity="0.0526316" d="M20.2746 321.706C29.0122 331.825 55.8369 347.929 93.2351 331.397C139.983 310.733 155.388 263.319 196.542 236.484C226.917 216.678 309.956 184.407 360.727 210.396" stroke="white" stroke-width="1.45842"/>
<path opacity="0.105263" d="M10.8532 299.89C18.4853 310.866 43.4798 329.686 82.4011 317.154C131.053 301.49 151.33 255.946 195.063 233.56C227.342 217.037 313.299 193.623 361.075 224.777" stroke="white" stroke-width="1.45842"/>
<path opacity="0.157895" d="M3.34439 277.642C9.7873 289.356 32.6777 310.685 72.6957 302.29C122.718 291.797 147.645 248.622 193.479 230.93C227.307 217.872 315.241 203.571 359.499 239.548" stroke="white" stroke-width="1.45842"/>
<path opacity="0.210526" d="M-2.21734 255.163C2.96583 267.486 23.5013 291.091 64.1776 286.925C115.023 281.718 144.326 241.385 191.758 228.581C226.766 219.131 315.713 214.1 355.968 254.506" stroke="white" stroke-width="1.45842"/>
<path opacity="0.263158" d="M-5.81829 232.658C-1.95165 245.455 16.0039 271.078 56.8929 271.187C108.004 271.323 141.362 234.274 189.873 226.498C225.677 220.759 314.663 225.053 350.474 269.446" stroke="white" stroke-width="1.45842"/>
<path opacity="0.315789" d="M-7.4664 210.333C-4.95864 223.464 10.2203 250.823 50.8739 255.206C101.691 260.684 138.739 227.325 187.797 224.662C224.005 222.697 312.054 236.269 343.029 284.162" stroke="white" stroke-width="1.45842"/>
<path opacity="0.368421" d="M-7.19206 188.39C-6.07067 201.712 6.1653 230.508 46.1381 239.115C96.1041 249.875 136.436 220.572 185.504 223.051C221.719 224.882 307.867 247.583 333.666 298.451" stroke="white" stroke-width="1.45842"/>
<path opacity="0.421053" d="M-5.04442 167.029C-5.32169 180.395 3.83729 210.312 42.6914 223.051C91.259 238.975 134.433 214.048 182.973 221.643C218.798 227.248 302.101 258.83 322.441 312.117" stroke="white" stroke-width="1.45842"/>
<path opacity="0.473684" d="M-1.09531 146.442C-2.76819 159.706 3.21344 190.416 40.5231 207.147C87.1601 228.06 132.704 207.783 180.183 220.41C215.226 229.729 294.772 269.846 309.431 324.967" stroke="white" stroke-width="1.45842"/>
<path opacity="0.526316" d="M4.56426 126.813C1.51408 139.83 4.25285 170.997 39.6093 191.536C83.8048 217.209 131.218 201.803 177.118 219.324C210.995 232.256 285.912 280.468 294.728 336.819" stroke="white" stroke-width="1.45842"/>
<path opacity="0.578947" d="M11.8255 108.316C7.43148 120.942 6.89736 152.225 39.9132 176.347C81.1831 206.5 129.947 196.134 173.764 218.357C206.104 234.759 275.57 290.537 278.449 347.501" stroke="white" stroke-width="1.45842"/>
<path opacity="0.631579" d="M20.5608 91.1119C14.871 103.21 11.0699 134.265 41.3834 161.706C79.2754 196.008 128.856 190.796 170.109 217.477C200.558 237.17 263.813 299.904 260.722 356.856" stroke="white" stroke-width="1.45842"/>
<path opacity="0.684211" d="M30.627 75.3478C23.7038 86.7845 16.6773 117.273 43.9564 147.732C78.0553 185.806 127.909 185.806 166.148 216.653C194.371 239.42 250.722 308.423 241.694 364.74" stroke="white" stroke-width="1.45842"/>
<path opacity="0.736842" d="M41.8667 61.1544C33.786 71.8048 23.6111 101.392 47.5569 134.535C77.4892 175.965 127.07 181.176 161.875 215.851C187.563 241.444 236.393 315.959 221.528 371.024" stroke="white" stroke-width="1.45842"/>
<path opacity="0.789474" d="M54.1091 48.6467C44.9594 58.3941 31.7476 86.7553 52.0978 122.221C77.5355 166.552 126.3 176.917 157.289 215.04C180.162 243.178 220.936 322.389 200.396 375.599" stroke="white" stroke-width="1.45842"/>
<path opacity="0.842105" d="M67.1718 37.9194C57.0533 46.6571 40.9493 73.4818 57.4809 110.88C78.1453 157.628 125.559 173.033 152.394 214.187C172.2 244.561 204.471 327.6 178.482 378.371" stroke="white" stroke-width="1.45842"/>
<path opacity="0.894737" d="M80.865 29.0492C69.8887 36.6813 51.0689 61.6758 63.6007 100.597C79.2655 149.249 124.809 169.526 147.195 213.259C163.718 245.538 187.132 331.495 155.978 379.271" stroke="white" stroke-width="1.45842"/>
<path opacity="0.947368" d="M94.9908 22.0914C83.2768 28.5343 61.9475 51.4247 70.3423 91.4428C80.8358 141.465 124.01 166.392 141.703 212.226C154.761 246.054 169.061 333.988 133.084 378.246" stroke="white" stroke-width="1.45842"/>
<path d="M109.347 17.0808C97.024 22.264 73.4188 42.7994 77.5846 83.4758C82.7918 134.321 123.124 163.624 135.929 211.056C145.379 246.064 150.41 335.011 110.004 375.266" stroke="white" stroke-width="1.45842"/>
</g>
</svg>
