<svg width="215" height="25" viewBox="0 0 215 25" fill="none" xmlns="http://www.w3.org/2000/svg">
<path opacity="0.1" d="M206.674 4.42284L206.674 19.744L193.405 12.0834L206.674 4.42284Z" fill="white"/>
<path opacity="0.2" d="M179.507 4.42284L179.507 19.744L166.239 12.0834L179.507 4.42284Z" fill="white"/>
<path opacity="0.4" d="M152.34 4.42284L152.34 19.744L139.072 12.0834L152.34 4.42284Z" fill="white"/>
<path opacity="0.5" d="M125.173 4.42284L125.173 19.744L111.905 12.0834L125.173 4.42284Z" fill="white"/>
<path opacity="0.6" d="M98.0066 4.42284L98.0066 19.744L84.7381 12.0834L98.0066 4.42284Z" fill="white"/>
<path opacity="0.7" d="M70.8398 4.42284L70.8398 19.744L57.5713 12.0834L70.8398 4.42284Z" fill="white"/>
<path opacity="0.8" d="M43.673 4.42284L43.673 19.744L30.4045 12.0834L43.673 4.42284Z" fill="white"/>
<path d="M16.5062 4.42284L16.5062 19.744L3.23765 12.0834L16.5062 4.42284Z" fill="white"/>
</svg>
