<svg width="128" height="77" viewBox="0 0 128 77" fill="none" xmlns="http://www.w3.org/2000/svg">
<path opacity="0.7" fill-rule="evenodd" clip-rule="evenodd" d="M94.7559 0.530458L30.699 1.25794L0.0797348 54.2921L29.4203 113.632L95.2597 113.925L127.911 57.3713L94.7559 0.530458ZM109.134 85.8858L125.021 58.3683L99.6275 58.2553L83.5434 86.1137L109.134 85.8858ZM107.971 87.9007L94.1055 111.916L68.7118 111.803L82.3801 88.1286L107.971 87.9007ZM80.0537 88.1493L66.4033 111.793L31.7755 111.638L45.1575 88.4601L80.0537 88.1493ZM43.427 87.4487L30.1125 110.51L14.6306 79.1986L27.1378 57.5355L43.427 87.4487ZM28.3123 55.5012L44.6015 85.4144L60.9607 57.0795L44.4893 27.787L44.3114 27.79L28.3123 55.5012ZM26.0144 55.4725L13.5629 77.0392L2.35194 54.3653L14.2188 33.8113L26.0144 55.4725ZM15.3933 31.777L27.1889 53.4382L43.143 25.805L43.3726 25.8011L31.27 4.27786L15.3933 31.777ZM46.3208 86.4452L81.217 86.1345L97.319 58.245L62.6912 58.0908L46.3208 86.4452ZM97.0125 56.2392L62.7018 56.0865L46.7673 27.7487L80.0671 27.1885L97.0125 56.2392ZM78.9091 25.2033L45.6506 25.7628L32.9839 3.23649L65.8779 2.86292L78.9091 25.2033ZM68.1831 2.83675L81.207 25.1647L106.556 24.7383L93.6123 2.54795L68.1831 2.83675ZM107.714 26.7234L82.365 27.1499L99.3389 56.2496L125.003 56.3639L107.714 26.7234Z" fill="url(#paint0_linear_16167_10910)"/>
<defs>
<linearGradient id="paint0_linear_16167_10910" x1="28.9837" y1="1.03613" x2="94.1259" y2="117.29" gradientUnits="userSpaceOnUse">
<stop stop-color="white"/>
<stop offset="1" stop-color="#3C3C3C"/>
</linearGradient>
</defs>
</svg>
