<svg width="430" height="509" viewBox="0 0 430 509" fill="none" xmlns="http://www.w3.org/2000/svg">
<g opacity="0.4">
<path opacity="0.0526316" d="M50.5887 443.077C62.6499 457.044 99.6783 479.274 151.302 456.454C215.832 427.929 237.097 362.48 293.905 325.438C335.833 298.098 450.458 253.552 520.542 289.427" stroke="white" stroke-width="1.45842"/>
<path opacity="0.105263" d="M37.5672 412.963C48.1024 428.115 82.6043 454.093 136.331 436.795C203.488 415.171 231.478 352.304 291.847 321.402C336.403 298.595 455.057 266.275 521.007 309.279" stroke="white" stroke-width="1.45842"/>
<path opacity="0.157895" d="M27.2013 382.252C36.095 398.422 67.6924 427.864 122.933 416.276C191.983 401.791 226.391 342.194 289.659 317.772C336.355 299.747 457.737 280.006 518.83 329.668" stroke="white" stroke-width="1.45842"/>
<path opacity="0.210526" d="M19.5247 351.222C26.6795 368.233 55.0262 400.817 111.175 395.067C181.361 387.879 221.81 332.205 287.284 314.53C335.609 301.484 458.39 294.54 513.957 350.316" stroke="white" stroke-width="1.45842"/>
<path opacity="0.263158" d="M14.5534 320.157C19.8909 337.823 44.6763 373.191 101.119 373.342C171.672 373.53 217.719 322.388 284.682 311.654C334.105 303.732 456.939 309.659 506.372 370.938" stroke="white" stroke-width="1.45842"/>
<path opacity="0.315789" d="M12.2784 289.34C15.7401 307.467 36.6927 345.232 92.8101 351.282C162.957 358.843 214.098 312.796 281.816 309.12C331.797 306.407 453.338 325.142 496.095 391.252" stroke="white" stroke-width="1.45842"/>
<path opacity="0.368421" d="M12.6572 259.051C14.2052 277.44 31.0954 317.189 86.2731 329.071C155.245 343.923 210.919 303.474 278.65 306.897C328.641 309.423 447.558 340.76 483.17 410.977" stroke="white" stroke-width="1.45842"/>
<path opacity="0.421053" d="M15.6218 229.564C15.2391 248.015 27.8819 289.311 81.5153 306.896C148.557 328.877 208.154 294.468 275.157 304.952C324.609 312.69 439.6 356.285 467.677 429.84" stroke="white" stroke-width="1.45842"/>
<path opacity="0.473684" d="M21.0734 201.147C18.7642 219.456 27.0211 261.848 78.5226 284.942C142.899 313.811 205.767 285.82 271.306 303.25C319.679 316.115 429.483 371.491 449.717 447.578" stroke="white" stroke-width="1.45842"/>
<path opacity="0.526316" d="M28.886 174.052C24.6756 192.019 28.4561 235.042 77.2614 263.393C138.268 298.832 203.717 277.566 267.075 301.752C313.839 319.603 417.252 386.153 429.423 463.938" stroke="white" stroke-width="1.45842"/>
<path opacity="0.578947" d="M38.9086 148.518C32.8432 165.947 32.1059 209.129 77.6803 242.427C134.648 284.049 201.961 269.741 262.445 300.416C307.086 323.057 402.977 400.053 406.95 478.684" stroke="white" stroke-width="1.45842"/>
<path opacity="0.631579" d="M50.967 124.77C43.1129 141.469 37.8659 184.338 79.7101 222.217C132.015 269.566 200.455 262.372 257.401 299.202C299.431 326.385 386.748 412.982 382.48 491.598" stroke="white" stroke-width="1.45842"/>
<path opacity="0.684211" d="M64.8623 103.009C55.3057 118.796 45.6064 160.882 83.262 202.927C130.331 255.484 199.148 255.484 251.932 298.064C290.891 329.492 368.678 424.742 356.215 502.481" stroke="white" stroke-width="1.45842"/>
<path opacity="0.736842" d="M80.3946 83.4161C69.2401 98.1177 55.1949 138.959 88.2492 184.71C129.567 241.899 198.007 249.092 246.051 296.957C281.511 332.284 348.915 435.143 328.396 511.154" stroke="white" stroke-width="1.45842"/>
<path opacity="0.789474" d="M97.2931 66.1507C84.6631 79.6058 66.4257 118.755 94.5167 167.711C129.63 228.905 196.944 243.213 239.721 295.837C271.294 334.678 327.577 444.019 299.225 517.468" stroke="white" stroke-width="1.45842"/>
<path opacity="0.842105" d="M115.325 51.343C101.358 63.4042 79.1282 100.433 101.948 152.056C130.473 216.586 195.922 237.851 232.964 294.659C260.304 336.587 304.85 451.213 268.975 521.296" stroke="white" stroke-width="1.45842"/>
<path opacity="0.894737" d="M134.227 39.0987C119.075 49.6338 93.0968 84.1357 110.395 137.862C132.019 205.02 194.886 233.01 225.788 293.378C248.595 337.935 280.915 456.589 237.911 522.538" stroke="white" stroke-width="1.45842"/>
<path opacity="0.947368" d="M153.726 29.4943C137.556 38.3879 108.114 69.9853 119.702 125.225C134.187 194.276 193.784 228.684 218.206 291.952C236.231 338.648 255.971 460.03 206.309 521.123" stroke="white" stroke-width="1.45842"/>
<path d="M173.543 22.5778C156.532 29.7325 123.948 58.0792 129.699 114.228C136.887 184.414 192.561 224.863 210.236 290.337C223.281 338.662 230.225 461.443 174.449 517.01" stroke="white" stroke-width="1.45842"/>
</g>
</svg>
